<svg xmlns="http://www.w3.org/2000/svg" width="500" height="500" viewBox="0 0 500 500">
  <style type="text/css">
    .st0{fill:#B8195B;}
    .st1{fill:#8401FF;}
    .st2{fill:#0047CB;}
    .st3{fill:#19B9EB;}
    .st4{fill:#38DEC2;}
    .st5{fill:#FBC41B;}
    .st6{fill:#F9831B;}
  </style>
  <g>
    <path class="st0" d="M222.9,150.8h0.5h53.4h0.5c9.2,0,15.8-6.6,15.8-15.8V20.5c0-9.2-6.6-15.8-15.8-15.8h-0.5h-53.4h-0.5		c-9.2,0-15.8,6.6-15.8,15.8V135C206.6,144.6,213.2,150.8,222.9,150.8z"/>
    <path class="st1" d="M151,211.8l0.5-0.5l33.1-41.7l0.5-0.5c5.6-7.1,4.6-16.3-2.5-22.4L93,75.5c-7.1-5.6-16.3-4.6-22.4,2.5l-0.5,0.5		l-33.1,41.7l-0.5,0.5c-5.6,7.1-4.6,16.3,2.5,22.4l89.5,71.2C136.3,219.9,145.4,218.9,151,211.8z"/>
    <path class="st2" d="M154.1,305.4v-0.5L142.4,253v-0.5c-2-9.2-9.7-13.7-18.8-11.7L12.2,266.2c-9.2,2-13.7,9.7-11.7,18.8v0.5		l11.7,51.9v0.5c2,9.2,9.7,13.7,18.8,11.7l111.4-25.4C151.6,322.2,156.2,314.6,154.1,305.4z"/>
    <path class="st3" d="M229.5,361.4l-0.5-0.5L181.1,338l-0.5-0.5c-8.6-4.1-17.3-1-20.9,7.6l-49.3,102.8c-4.1,8.6-1,17.3,7.6,20.9		l0.5,0.5l47.8,22.9l0.5,0.5c8.6,4.1,17.3,1,20.9-7.6l49.3-102.8C240.7,374.1,237.6,365.5,229.5,361.4z"/>
    <path class="st4" d="M319.9,338l-0.5,0.5l-47.8,22.9l-0.5,0.5c-8.6,4.1-11.2,12.7-7.6,21.4l49.9,102.8c4.1,8.6,12.7,11.2,21.4,7.6		l0.5-0.5l47.8-22.9l0.5-0.5c8.6-4.1,11.2-12.7,7.6-21.4l-49.9-102.8C336.7,337,328.1,334,319.9,338z"/>
    <path class="st5" d="M357.6,252v0.5l-11.7,51.9v0.5c-2,9.2,2.5,16.8,11.7,18.8L469,349.1c9.2,2,16.8-2.5,18.8-11.7v-0.5l11.7-51.9		v-0.5c2-9.2-2.5-16.8-11.7-18.8l-111.4-25.4C367.8,238.2,360.1,242.8,357.6,252z"/>
    <path class="st6" d="M314.4,169.1l0.5,0.5l33.1,41.7l0.5,0.5c5.6,7.1,14.8,8.1,22.4,2.5l89.5-71.2c7.1-5.6,8.1-14.8,2.5-22.4		l-0.5-0.5l-33.1-41.7l-0.5-0.5c-5.6-7.1-14.8-8.1-22.4-2.5l-89.5,71.2C309.8,152.8,308.8,161.4,314.4,169.1z"/>
  </g>
</svg>
