<svg xmlns="http://www.w3.org/2000/svg" width="101.9" height="101.9" viewBox="0 0 101.9 101.9">
  <style type="text/css">
    .st0{fill:#FF7449;}
    .st1{fill:#FFFFFF;}
  </style>
  <path class="st0" d="M51,0C9,0,0,9,0,51c0,42,9,51,51,51c42,0,51-9,51-51C101.9,9,92.9,0,51,0z"/>
  <g>
    <path class="st1"
          d="M78.3,72.1l-4.1,0l-0.3-33.9c0-0.2-0.1-0.3-0.2-0.5c-0.1-0.1-0.3-0.2-0.5-0.2l-7.6,0.1		c0.5-0.7,0.9-1.5,1.1-2.4c0.6-2,0.5-4.2-0.3-6.2c-0.1-0.3-0.5-0.5-0.9-0.3c-0.3,0.1-0.5,0.5-0.3,0.9c0.7,1.7,0.8,3.6,0.3,5.3		c-0.5,1.7-1.6,3.3-3.2,4.3c-1.5,1-3.4,1.5-5.2,1.3c-1.8-0.2-3.5-1-4.8-2.3c-1.3-1.3-2.1-3-2.3-4.8c-0.2-1.8,0.3-3.7,1.3-5.2		c1-1.5,2.5-2.7,4.3-3.2c1.7-0.5,3.6-0.4,5.3,0.2c0.3,0.1,0.7,0,0.8-0.4c0.1-0.3,0-0.7-0.4-0.8c-2-0.8-4.2-0.9-6.2-0.3		c-2,0.6-3.8,1.9-5,3.7c-1.2,1.8-1.7,3.9-1.5,6c0.2,2.1,1.2,4.1,2.7,5.6c1.5,1.5,3.5,2.4,5.6,2.6c0.3,0,0.6,0,0.9,0		c1,0,1.9-0.2,2.8-0.4L61,72.3l-2.3,0L58.5,48c0-0.4-0.3-0.6-0.7-0.6l-6.7,0.1c0-1.1-0.1-2.1-0.5-3.1c-0.1-0.3-0.5-0.5-0.9-0.3		c-0.3,0.1-0.5,0.5-0.3,0.9c0.5,1.3,0.6,2.8,0.2,4.1c-0.4,1.4-1.3,2.5-2.4,3.3c-1.2,0.8-2.6,1.1-4,1c-1.4-0.1-2.7-0.8-3.7-1.8		c-1-1-1.6-2.3-1.8-3.7c-0.1-1.4,0.2-2.8,1-4c0.8-1.2,2-2.1,3.3-2.5c1.3-0.4,2.8-0.3,4.1,0.2c0.3,0.1,0.7,0,0.8-0.4		c0.1-0.3,0-0.7-0.4-0.8c-1.6-0.7-3.4-0.7-5-0.2c-1.6,0.5-3.1,1.6-4,3c-0.9,1.4-1.4,3.1-1.2,4.8c0.2,1.7,0.9,3.3,2.1,4.5		c1.2,1.2,2.8,2,4.5,2.1c0.2,0,0.5,0,0.7,0c0.5,0,1.1-0.1,1.6-0.2l0.2,18.1l-2.3,0l-0.2-16c0-0.4-0.3-0.6-0.6-0.6c0,0,0,0,0,0		l-11.9,0.1c-0.2,0-0.3,0.1-0.5,0.2c-0.1,0.1-0.2,0.3-0.2,0.5l0.2,16l-2.9,0c-0.4,0-0.6,0.3-0.6,0.7c0,0.4,0.3,0.6,0.6,0.6		c0,0,0,0,0,0l34.5-0.3c0,0,0,0,0,0c0,0,0,0,0,0l11.9-0.1c0,0,0,0,0,0l4.8,0c0.4,0,0.6-0.3,0.6-0.7C79,72.4,78.7,72.1,78.3,72.1z		 M62,40.9c0.4-0.2,0.7-0.4,1-0.6c0.6-0.4,1.1-0.8,1.5-1.3l8-0.1l0.3,33.2l-10.6,0.1L62,40.9z M46.9,72.4L46.7,54c0,0,0,0,0-0.1		c0.4-0.2,0.9-0.4,1.3-0.7c1.4-1,2.5-2.4,3-4c0.1-0.2,0.1-0.4,0.1-0.6l6.2-0.1l0.2,23.7l-6.7,0.1L46.9,72.4z M31.4,72.6l-0.1-15.4		l10.6-0.1L42,72.5l-7,0.1L31.4,72.6z"/>
    <path class="st1" d="M60.7,34.9c0-0.4-0.1-0.7-0.2-1c-0.1-0.3-0.3-0.5-0.5-0.7c-0.2-0.2-0.5-0.4-0.8-0.6c-0.3-0.2-0.7-0.3-1.2-0.5		c-0.5-0.2-0.9-0.4-1.1-0.6c-0.2-0.2-0.3-0.5-0.3-0.9c0-0.4,0.1-0.7,0.3-0.9c0.2-0.2,0.5-0.3,0.9-0.3c0.4,0,0.7,0.1,0.9,0.4		c0.2,0.3,0.4,0.7,0.4,1.2l1.5,0c0-0.8-0.2-1.4-0.6-1.9c-0.4-0.5-0.9-0.8-1.6-0.9l0-1.3l-1,0l0,1.3c-0.7,0.1-1.3,0.4-1.7,0.8		c-0.4,0.4-0.6,1-0.6,1.7c0,1,0.5,1.7,1.4,2.2c0.3,0.2,0.7,0.3,1.2,0.5c0.5,0.2,0.9,0.4,1.1,0.6c0.2,0.2,0.3,0.5,0.3,0.9		c0,0.4-0.1,0.7-0.4,0.9c-0.2,0.2-0.6,0.3-1.1,0.3c-0.5,0-0.8-0.1-1.1-0.4c-0.3-0.3-0.4-0.7-0.4-1.2l-1.5,0c0,0.8,0.2,1.5,0.7,1.9		c0.4,0.5,1.1,0.8,1.9,0.8l0,1.2l1,0l0-1.2c0.8-0.1,1.3-0.3,1.8-0.8C60.5,36.1,60.7,35.6,60.7,34.9z"/>
  </g>
</svg>
