<svg xmlns="http://www.w3.org/2000/svg" viewBox="0 0 80.7 80.7" width="80.7" height="80.7">
  <style type="text/css">
    .st0{fill:#FFFFFF;}
    .st1{fill:#3D50F9;}
  </style>
  <path class="st0" d="M40.3,0C7.1,0,0,7.1,0,40.3c0,33.2,7.1,40.3,40.3,40.3c33.2,0,40.3-7.1,40.3-40.3C80.7,7.1,73.6,0,40.3,0z"/>
  <path class="st1"
        d="M63.7,43.1l-0.3-1.3l-4.1,0.9c0,0,0,0,0,0L44.1,31.6l-7.9,3.8c-0.5,0.2-1,0.1-1.4-0.2c-0.3-0.2-0.4-0.6-0.4-0.9	s0.2-0.7,0.4-0.9l5.4-4.7c1.1-1,2.7-1.4,4.1-1L55.1,30l6.1-2l-0.4-1.2L55,28.7l-10.3-2.3c-1.9-0.4-3.8,0.1-5.3,1.3l-0.9,0.7	l-1.2-0.4c-1.6-0.5-3.4-0.3-4.9,0.4l-1.7,0.8c-0.6,0.3-1.4,0.3-2,0L25.7,28l-0.5,1.2l3.1,1.3c1,0.4,2.1,0.4,3.1-0.1l1.7-0.8	c1.2-0.6,2.7-0.7,4-0.3l0.4,0.1L34,32.4c-0.5,0.5-0.9,1.2-0.9,1.9c0,0.7,0.3,1.4,0.8,1.9c0.8,0.7,1.9,0.9,2.8,0.4l7.2-3.5l14.6,10.6	c0.7,0.5,0.9,1.5,0.4,2.2c-0.5,0.7-1.4,0.9-2.2,0.4L56,45.9c0,0,0,0,0,0l-1.6-1l0,0l-6.7-4.4L47,41.6l8.3,5.4	c0.3,0.2,0.5,0.5,0.5,0.8c0.1,0.3,0,0.7-0.2,1c-0.4,0.5-1.1,0.7-1.7,0.4l-1.1-0.6c0,0-0.1,0-0.1-0.1l-1.6-0.9l0,0L45,44.4l-0.6,1.2	l7.8,4.1c0.3,0.2,0.5,0.4,0.6,0.7c0.1,0.3,0.1,0.7-0.1,1c-0.3,0.6-1,0.8-1.6,0.6l-3.5-1.4l-0.4-0.2l0,0l-3.8-1.6L42.9,50l4.2,1.7	l1.3,0.6c0.3,0.1,0.6,0.4,0.7,0.7c0.1,0.3,0.1,0.7,0,1c-0.3,0.6-1,0.9-1.6,0.7l-5.8-2l0.9-3.1c0.2-0.7,0.1-1.4-0.2-2	c-0.3-0.6-0.9-1.1-1.6-1.3c-0.7-0.2-1.4-0.1-2,0.2c-0.1,0-0.2,0.1-0.2,0.2c-0.3-0.7-0.9-1.2-1.7-1.5c-0.8-0.2-1.6-0.1-2.2,0.3	c-0.3-0.7-0.9-1.3-1.7-1.5c-1.4-0.4-2.9,0.4-3.3,1.8l-0.4,1.4l-10.8-5.9l-0.6,1.1l4.3,2.4c-0.5,0.8-0.6,1.9,0.1,2.9	c0.5,0.6,1.1,1,1.8,1.1c0.1,0,0.2,0,0.3,0c1,0,2-0.6,2.8-1.2l1.6,0.9l-0.2,0.7c-0.4,1.4,0.4,2.9,1.8,3.3c0.3,0.1,0.5,0.1,0.8,0.1	c0.4,0,0.9-0.1,1.3-0.3c0.1,0,0.1-0.1,0.2-0.1c0.3,0.7,0.9,1.3,1.7,1.5c0.3,0.1,0.5,0.1,0.8,0.1c0.5,0,1.1-0.2,1.5-0.5	c0,0.1,0,0.1,0.1,0.2c0.3,0.6,0.9,1.1,1.6,1.3c0.3,0.1,0.5,0.1,0.8,0.1c0.4,0,0.9-0.1,1.3-0.3c0.3-0.2,0.6-0.4,0.8-0.7L47,56	c0.3,0.1,0.6,0.1,0.9,0.1c1,0,1.9-0.6,2.3-1.5c0.2-0.5,0.3-1,0.2-1.5l0.1,0.1c0.3,0.1,0.7,0.2,1,0.2c0.9,0,1.8-0.5,2.3-1.3	c0.3-0.5,0.4-1,0.3-1.5c0.1,0,0.3,0.1,0.4,0.1c0.8,0,1.6-0.4,2.1-1.1c0.3-0.5,0.5-1,0.4-1.6c0.2,0,0.3,0,0.5,0	c0.9,0,1.8-0.4,2.4-1.2c0.6-0.9,0.7-2,0.3-2.9L63.7,43.1z M24.2,47.5c-0.4,0-0.7-0.2-0.9-0.6c-0.4-0.5-0.3-1.1,0-1.4l2.6,1.4	C25.2,47.4,24.6,47.6,24.2,47.5z M31.8,51.2c-0.3,0.2-0.7,0.2-1.1,0.1c-0.4-0.1-0.7-0.3-0.8-0.7s-0.2-0.7-0.1-1.1l1-3.4	c0.2-0.7,1-1.2,1.7-0.9c0.4,0.1,0.7,0.3,0.8,0.7c0.2,0.3,0.2,0.7,0.1,1.1c0,0,0,0,0,0l-1,3.4C32.3,50.7,32.1,51,31.8,51.2z	 M34.6,52.5c-0.4-0.1-0.7-0.3-0.8-0.7s-0.2-0.7-0.1-1.1l0,0c0,0,0,0,0,0l1-3.4c0,0,0,0,0,0c0.2-0.7,1-1.1,1.7-0.9	c0.4,0.1,0.7,0.3,0.8,0.7s0.2,0.7,0.1,1.1l-1,3.4C36.1,52.3,35.4,52.7,34.6,52.5z M39.6,53.5c-0.3,0.2-0.7,0.2-1.1,0.1	c-0.4-0.1-0.7-0.3-0.8-0.7c-0.2-0.3-0.2-0.7-0.1-1.1l1-3.4c0.1-0.4,0.3-0.7,0.7-0.8c0.3-0.2,0.7-0.2,1.1-0.1s0.7,0.3,0.8,0.7	c0.2,0.3,0.2,0.7,0.1,1.1l-1,3.4C40.2,53,40,53.3,39.6,53.5z"/>
</svg>
