<svg xmlns="http://www.w3.org/2000/svg">
  <style>:root svg:not(:target){display:none}</style>
  <svg id="github" viewBox="0 0 500 500">
    <path d="M250.2,4.2C111.8,4.2,0,116.8,0,256.2C0,367.7,71.7,462,171.1,495.4c12.4,2.5,17-5.4,17-12.1	c0-5.8-0.4-25.9-0.4-46.7c-69.6,15-84.1-30-84.1-30c-11.2-29.2-27.8-36.7-27.8-36.7c-22.8-15.4,1.7-15.4,1.7-15.4	c25.3,1.7,38.5,25.9,38.5,25.9c22.4,38.4,58.4,27.5,72.9,20.9c2.1-16.3,8.7-27.5,15.7-33.8C149.1,361.7,90.7,340,90.7,243.1	c0-27.5,9.9-50.1,25.7-67.6c-2.5-6.3-11.2-32.1,2.5-66.8c0,0,21.1-6.7,68.8,25.9c20.4-5.5,41.4-8.3,62.6-8.3	c21.1,0,42.7,2.9,62.5,8.3c47.6-32.6,68.8-25.9,68.8-25.9c13.7,34.6,5,60.5,2.5,66.8c16.2,17.5,25.7,40.1,25.7,67.6	c0,96.8-58.4,118.1-114.3,124.4c9.1,7.9,17,22.9,17,46.7c0,33.8-0.4,60.9-0.4,69.3c0,6.7,4.6,14.6,17,12.1	C428.3,462,500,367.7,500,256.2C500.4,116.8,388.1,4.2,250.2,4.2z"></path>
  </svg>
  <svg id="nemtsevk" viewBox="0 0 500 500">
    <path d="M250,0C111.9,0,0,111.9,0,250s111.9,250,250,250s250-111.9,250-250S388.1,0,250,0z M378,334.1l-56.1,56.1	L221.3,289.7v87.2H142V123.1h79.3v87.2l16.5-16.4l84.1-84.1l56.1,56.1L293.9,250L378,334.1z"></path>
  </svg>
  <svg id="telegram" viewBox="0 0 500 500">
    <path d="M34.4,221.2c134.2-58.5,223.7-97,268.5-115.7c127.9-53.2,154.4-62.4,171.7-62.7	c3.8-0.1,12.3,0.9,17.8,5.4c4.7,3.8,5.9,8.9,6.6,12.5c0.6,3.6,1.4,11.7,0.8,18.1c-6.9,72.8-36.9,249.5-52.2,331	c-6.5,34.5-19.2,46.1-31.5,47.2c-26.7,2.5-47-17.7-72.9-34.6c-40.5-26.6-63.4-43.1-102.7-69c-45.5-30-16-46.4,9.9-73.3	c6.8-7,124.6-114.2,126.9-123.9c0.3-1.2,0.5-5.7-2.1-8.1c-2.7-2.4-6.7-1.6-9.5-0.9c-4.1,0.9-68.8,43.7-194.2,128.4	c-18.4,12.6-35,18.8-49.9,18.4c-16.4-0.4-48.1-9.3-71.6-16.9C21,267.5-1.9,262.6,0.1,246.6C1.2,238.3,12.6,229.9,34.4,221.2z"></path>
  </svg>
  <svg id="vk" viewBox="0 0 500 500">
    <path d="M285.2,406V294.6c61.5,6.2,107.4,52.1,126.1,111.4H500c-24.1-88.7-86.4-137.7-125.2-156.4c38.8-23.2,93.6-79.3,106.5-155.5	h-80.6c-17,61.9-67.3,118.1-115.4,123.4V94h-82v216.1C153.3,297.8,88.2,237.1,85.6,94H0C4,288.8,106.5,406,275.4,406H285.2z"></path>
  </svg>
  <svg id="youtube" viewBox="0 0 500 500">
    <path d="M489.6,129.7c-5.8-21.5-22.7-38.5-44.2-44.2C406.4,75,250,75,250,75S93.6,75,54.7,85.4c-21.5,5.8-38.5,22.7-44.2,44.2	C0,168.6,0,250,0,250s0,81.4,10.4,120.3c5.8,21.5,22.7,38.5,44.2,44.2C93.6,425,250,425,250,425s156.4,0,195.3-10.4	c21.5-5.8,38.5-22.7,44.2-44.2C500,331.4,500,250,500,250S500,168.6,489.6,129.7z M200,325V175l129.9,75L200,325z"></path>
  </svg>
</svg>
